<mxfile host="app.diagrams.net" modified="2023-03-28T10:08:51.860Z" agent="Mozilla/5.0 (Windows NT 10.0; Win64; x64) AppleWebKit/537.36 (KHTML, like Gecko) Chrome/111.0.0.0 Safari/537.36" etag="Xen74LcHp2haigeph8fp" version="21.1.1" type="github">
  <diagram name="第 1 页" id="9GYhM0LAutZyOM6csO9C">
    <mxGraphModel dx="780" dy="470" grid="0" gridSize="10" guides="1" tooltips="1" connect="1" arrows="1" fold="1" page="1" pageScale="1" pageWidth="827" pageHeight="1169" background="none" math="0" shadow="0">
      <root>
        <mxCell id="0" />
        <mxCell id="1" parent="0" />
        <mxCell id="lg6SOMki0CFlZ4IYQeba-3" value="" style="edgeStyle=orthogonalEdgeStyle;rounded=0;orthogonalLoop=1;jettySize=auto;html=1;startArrow=classic;startFill=1;" parent="1" source="lg6SOMki0CFlZ4IYQeba-1" target="lg6SOMki0CFlZ4IYQeba-2" edge="1">
          <mxGeometry relative="1" as="geometry" />
        </mxCell>
        <mxCell id="XPMahFEZM1iYRiJGIpfO-12" value="" style="edgeStyle=orthogonalEdgeStyle;rounded=0;orthogonalLoop=1;jettySize=auto;html=1;startArrow=classic;startFill=1;exitX=0.5;exitY=1;exitDx=0;exitDy=0;" parent="1" source="lg6SOMki0CFlZ4IYQeba-2" target="XPMahFEZM1iYRiJGIpfO-11" edge="1">
          <mxGeometry relative="1" as="geometry">
            <mxPoint x="210" y="670" as="sourcePoint" />
          </mxGeometry>
        </mxCell>
        <mxCell id="XPMahFEZM1iYRiJGIpfO-13" style="edgeStyle=orthogonalEdgeStyle;rounded=0;orthogonalLoop=1;jettySize=auto;html=1;exitX=0.5;exitY=1;exitDx=0;exitDy=0;entryX=0.5;entryY=1;entryDx=0;entryDy=0;" parent="1" source="lg6SOMki0CFlZ4IYQeba-1" target="XPMahFEZM1iYRiJGIpfO-7" edge="1">
          <mxGeometry relative="1" as="geometry">
            <Array as="points">
              <mxPoint x="70" y="710" />
              <mxPoint x="730" y="710" />
            </Array>
          </mxGeometry>
        </mxCell>
        <mxCell id="lg6SOMki0CFlZ4IYQeba-1" value="x" style="whiteSpace=wrap;html=1;aspect=fixed;" parent="1" vertex="1">
          <mxGeometry x="40" y="616" width="40" height="40" as="geometry" />
        </mxCell>
        <mxCell id="XPMahFEZM1iYRiJGIpfO-6" value="" style="edgeStyle=orthogonalEdgeStyle;rounded=0;orthogonalLoop=1;jettySize=auto;html=1;startArrow=classic;startFill=1;" parent="1" source="lg6SOMki0CFlZ4IYQeba-2" target="XPMahFEZM1iYRiJGIpfO-1" edge="1">
          <mxGeometry relative="1" as="geometry" />
        </mxCell>
        <mxCell id="lg6SOMki0CFlZ4IYQeba-2" value="[x]&lt;sub&gt;原&lt;/sub&gt;" style="whiteSpace=wrap;html=1;aspect=fixed;" parent="1" vertex="1">
          <mxGeometry x="259" y="616" width="40" height="40" as="geometry" />
        </mxCell>
        <mxCell id="XPMahFEZM1iYRiJGIpfO-8" value="" style="edgeStyle=orthogonalEdgeStyle;rounded=0;orthogonalLoop=1;jettySize=auto;html=1;" parent="1" source="XPMahFEZM1iYRiJGIpfO-1" target="XPMahFEZM1iYRiJGIpfO-7" edge="1">
          <mxGeometry relative="1" as="geometry" />
        </mxCell>
        <mxCell id="XPMahFEZM1iYRiJGIpfO-10" value="" style="edgeStyle=orthogonalEdgeStyle;rounded=0;orthogonalLoop=1;jettySize=auto;html=1;startArrow=classic;startFill=1;" parent="1" source="XPMahFEZM1iYRiJGIpfO-1" target="XPMahFEZM1iYRiJGIpfO-9" edge="1">
          <mxGeometry relative="1" as="geometry" />
        </mxCell>
        <mxCell id="XPMahFEZM1iYRiJGIpfO-1" value="[x]&lt;span style=&quot;font-size: 10px;&quot;&gt;&lt;sub&gt;补&lt;/sub&gt;&lt;/span&gt;" style="whiteSpace=wrap;html=1;aspect=fixed;" parent="1" vertex="1">
          <mxGeometry x="467" y="616" width="40" height="40" as="geometry" />
        </mxCell>
        <mxCell id="XPMahFEZM1iYRiJGIpfO-7" value="[x]&lt;sub&gt;移&lt;/sub&gt;" style="whiteSpace=wrap;html=1;aspect=fixed;" parent="1" vertex="1">
          <mxGeometry x="717" y="616" width="40" height="40" as="geometry" />
        </mxCell>
        <mxCell id="XPMahFEZM1iYRiJGIpfO-9" value="[-x]&lt;span style=&quot;font-size: 10px;&quot;&gt;&lt;sub&gt;补&lt;/sub&gt;&lt;/span&gt;" style="whiteSpace=wrap;html=1;aspect=fixed;" parent="1" vertex="1">
          <mxGeometry x="467" y="737" width="40" height="40" as="geometry" />
        </mxCell>
        <mxCell id="XPMahFEZM1iYRiJGIpfO-11" value="[x]&lt;sub&gt;反&lt;/sub&gt;" style="whiteSpace=wrap;html=1;aspect=fixed;" parent="1" vertex="1">
          <mxGeometry x="259" y="739" width="40" height="40" as="geometry" />
        </mxCell>
        <mxCell id="XPMahFEZM1iYRiJGIpfO-14" value="盖住符号位照抄, 然后看符号加 01" style="text;strokeColor=none;align=center;fillColor=none;html=1;verticalAlign=middle;whiteSpace=wrap;rounded=0;" parent="1" vertex="1">
          <mxGeometry x="82" y="582" width="197" height="26" as="geometry" />
        </mxCell>
        <mxCell id="XPMahFEZM1iYRiJGIpfO-15" value="x0 = 0 数值位不变" style="text;strokeColor=none;align=center;fillColor=none;html=1;verticalAlign=middle;whiteSpace=wrap;rounded=0;" parent="1" vertex="1">
          <mxGeometry x="340" y="587" width="114" height="26" as="geometry" />
        </mxCell>
      </root>
    </mxGraphModel>
  </diagram>
</mxfile>
